<svg width="15" height="18" viewBox="0 0 15 18" fill="none" xmlns="http://www.w3.org/2000/svg">
<path d="M0.75 7.01459C0.75 11.4051 4.69132 15.0358 6.43585 16.4279C6.68552 16.6271 6.81185 16.7279 6.99812 16.779C7.14316 16.8188 7.35663 16.8188 7.50168 16.779C7.6883 16.7278 7.81374 16.628 8.06436 16.428C9.80889 15.036 13.75 11.4055 13.75 7.015C13.75 5.35347 13.0652 3.75979 11.8462 2.58492C10.6272 1.41004 8.97403 0.75 7.25011 0.75C5.5262 0.75 3.87281 1.41014 2.65382 2.58502C1.43482 3.75989 0.75 5.35307 0.75 7.01459Z" stroke="black" stroke-width="1.5" stroke-linecap="round" stroke-linejoin="round"/>
<circle cx="7.24971" cy="7.24996" r="1.92647" stroke="black" stroke-width="1.5"/>
</svg>
