<svg width="12" height="12" viewBox="0 0 12 12" fill="none" xmlns="http://www.w3.org/2000/svg">
<path d="M7.08784 4.77778V9.05556M4.4527 4.77778V9.05556M1.81757 2.33333V9.54444C1.81757 10.229 1.81757 10.571 1.96117 10.8324C2.08749 11.0624 2.28891 11.2497 2.53683 11.3669C2.81839 11.5 3.18718 11.5 3.92364 11.5H7.6169C8.35337 11.5 8.72161 11.5 9.00318 11.3669C9.2511 11.2497 9.45319 11.0624 9.57951 10.8324C9.72297 10.5712 9.72297 10.2295 9.72297 9.54633V2.33333M1.81757 2.33333H3.13514M1.81757 2.33333H0.5M3.13514 2.33333H8.40541M3.13514 2.33333C3.13514 1.76385 3.13514 1.47925 3.23543 1.25464C3.36915 0.95516 3.62548 0.717084 3.94832 0.593036C4.19045 0.5 4.49758 0.5 5.11149 0.5H6.42905C7.04296 0.5 7.34992 0.5 7.59205 0.593036C7.91489 0.717084 8.17132 0.95516 8.30504 1.25464C8.40534 1.47925 8.40541 1.76385 8.40541 2.33333M8.40541 2.33333H9.72297M9.72297 2.33333H11.0405" stroke="#EB441B" stroke-linecap="round" stroke-linejoin="round"/>
</svg>
