<svg width="12" height="14" viewBox="0 0 12 14" fill="none" xmlns="http://www.w3.org/2000/svg">
<path d="M2.84578 3.94942C2.84578 5.71642 4.2424 7.14885 5.96522 7.14885C7.68804 7.14885 9.08466 5.71642 9.08466 3.94942C9.08466 2.18243 7.68804 0.75 5.96522 0.75C4.2424 0.75 2.84578 2.18243 2.84578 3.94942Z" fill="#1AEDB1"/>
<path d="M10.9563 12.2679C10.9563 10.5009 8.72173 9.0685 5.96522 9.0685C3.20871 9.0685 0.974121 10.5009 0.974121 12.2679M5.96522 7.14885C4.2424 7.14885 2.84578 5.71642 2.84578 3.94942C2.84578 2.18243 4.2424 0.75 5.96522 0.75C7.68804 0.75 9.08466 2.18243 9.08466 3.94942C9.08466 5.71642 7.68804 7.14885 5.96522 7.14885Z" stroke="#1AEDB1" stroke-width="1.5" stroke-linecap="round" stroke-linejoin="round"/>
<path d="M0.590332 13.0357H10.9565H11.3404C10.9565 7.66066 4.04569 9.19647 2.50997 9.96433C1.28139 10.5786 0.974263 10.7322 0.590332 13.0357Z" fill="#1AEDB1" stroke="#1AEDB1"/>
</svg>
