<svg width="8" height="10" viewBox="0 0 8 10" fill="none" xmlns="http://www.w3.org/2000/svg">
<path d="M0.350098 3.86102C0.350098 6.32163 2.47235 8.35644 3.41171 9.13658C3.54615 9.24823 3.61417 9.30473 3.71447 9.33337C3.79257 9.35567 3.90752 9.35567 3.98562 9.33337C4.0861 9.30467 4.15365 9.24873 4.2886 9.13666C5.22796 8.35652 7.3501 6.32185 7.3501 3.86125C7.3501 2.93006 6.98137 2.03691 6.32499 1.37846C5.6686 0.72001 4.77842 0.350098 3.85016 0.350098C2.9219 0.350098 2.03161 0.720065 1.37523 1.37851C0.718849 2.03696 0.350098 2.92984 0.350098 3.86102Z" stroke="#7D7C7C" stroke-width="0.7" stroke-linecap="round" stroke-linejoin="round"/>
<path d="M2.85011 3.393C2.85011 3.95318 3.29783 4.4073 3.85012 4.4073C4.40241 4.4073 4.85012 3.95318 4.85012 3.393C4.85012 2.83282 4.40241 2.3787 3.85012 2.3787C3.29783 2.3787 2.85011 2.83282 2.85011 3.393Z" stroke="#7D7C7C" stroke-width="0.7" stroke-linecap="round" stroke-linejoin="round"/>
</svg>
