<svg width="20" height="24" viewBox="0 0 20 24" fill="none" xmlns="http://www.w3.org/2000/svg">
<path d="M0.600098 9.27415C0.600098 15.3533 6.05731 20.3805 8.47281 22.3079C8.81851 22.5837 8.99343 22.7233 9.25134 22.7941C9.45217 22.8492 9.74775 22.8492 9.94857 22.7941C10.207 22.7232 10.3807 22.585 10.7277 22.3081C13.1432 20.3807 18.6001 15.3538 18.6001 9.27471C18.6001 6.97413 17.6519 4.76751 15.9641 3.14075C14.2763 1.514 11.9872 0.600098 9.60025 0.600098C7.21329 0.600098 4.92399 1.51414 3.23615 3.14089C1.54831 4.76764 0.600098 6.97357 0.600098 9.27415Z" stroke="black" stroke-width="1.2" stroke-linecap="round" stroke-linejoin="round"/>
<circle cx="9.59993" cy="9.60017" r="3.10588" stroke="black" stroke-width="1.2"/>
</svg>
