<svg width="12" height="15" viewBox="0 0 12 15" fill="none" xmlns="http://www.w3.org/2000/svg">
<path d="M3.92268 5.16667H2.73657C1.89649 5.16667 1.63972 5.16411 1.31885 5.33365C1.0366 5.48279 0.8073 5.72059 0.66349 6.01328C0.5 6.34604 0.5 6.78196 0.5 7.65315V12.0087C0.5 12.8799 0.5 13.3153 0.66349 13.648C0.8073 13.9407 1.0366 14.1789 1.31885 14.3281C1.6394 14.4974 1.89569 14.5 2.73413 14.5H8.76565C9.60408 14.5 10.1794 14.5 10.5 14.3306C10.7822 14.1815 11.0123 13.9433 11.1561 13.6506C11.3195 13.3181 11.3195 12.8834 11.3195 12.0139V7.65315C11.3195 6.78366 11.3195 6.34827 11.1561 6.01584C11.0123 5.72315 10.7822 5.48535 10.5 5.33621C10.1791 5.16667 9.60355 5.16667 8.76348 5.16667H8.07653M3.92268 5.16667H8.07653M3.92268 5.16667C3.8271 5.16667 3.74983 5.08631 3.74983 4.98718V2.83333C3.74983 1.54467 4.75719 0.5 5.99983 0.5C7.24247 0.5 8.24983 1.54467 8.24983 2.83333V4.98718C8.24983 5.08631 8.17212 5.16667 8.07653 5.16667" stroke="#1AEDB1" stroke-linecap="round" stroke-linejoin="round"/>
<rect x="1" y="5.5" width="10" height="9" fill="#1AEDB1"/>
<circle cx="6" cy="9.5" r="1" fill="white"/>
</svg>
