<svg width="16" height="18" viewBox="0 0 16 18" fill="none" xmlns="http://www.w3.org/2000/svg">
<path d="M7.27282 3.59115L0.600098 10.2638V13.6001L3.93646 13.6001L10.6092 6.92746M7.27282 3.59115L9.66552 1.19847L9.66695 1.19705C9.99632 0.867684 10.1613 0.702711 10.3515 0.64092C10.519 0.58649 10.6995 0.58649 10.867 0.64092C11.057 0.702667 11.2218 0.867453 11.5507 1.19635L13.0019 2.64748C13.3322 2.97779 13.4974 3.14302 13.5593 3.33346C13.6137 3.50098 13.6137 3.68143 13.5593 3.84895C13.4974 4.03926 13.3324 4.20424 13.0026 4.53407L13.0019 4.53478L10.6092 6.92746M7.27282 3.59115L10.6092 6.92746" stroke="white" stroke-width="1.2" stroke-linecap="round" stroke-linejoin="round"/>
<path d="M0.600098 16.6001H14.6001" stroke="white" stroke-linecap="round"/>
</svg>
