<svg width="11" height="11" viewBox="0 0 11 11" fill="none" xmlns="http://www.w3.org/2000/svg">
<path d="M5.63286 2.80081L0.5 7.9336V10.5L3.06643 10.5L8.19929 5.3672M5.63286 2.80081L7.4734 0.960284L7.4745 0.959192C7.72787 0.705836 7.85477 0.578933 8.00106 0.531402C8.12992 0.489533 8.26874 0.489533 8.3976 0.531402C8.54379 0.578899 8.67055 0.705658 8.92355 0.958655L10.0398 2.07491C10.2939 2.32899 10.421 2.45609 10.4686 2.60259C10.5105 2.73145 10.5105 2.87025 10.4686 2.99912C10.421 3.14551 10.2941 3.27241 10.0404 3.52614L10.0398 3.52668L8.19929 5.3672M5.63286 2.80081L8.19929 5.3672" stroke="black" stroke-linecap="round" stroke-linejoin="round"/>
</svg>
