<svg width="24" height="22" viewBox="0 0 24 22" fill="none" xmlns="http://www.w3.org/2000/svg">
<path d="M0.500064 17.5626C0.5 17.4778 0.5 17.3904 0.5 17.3003V4.70026C0.5 3.23012 0.5 2.4945 0.778539 1.93298C1.02355 1.43906 1.41422 1.03778 1.89507 0.786108C2.44174 0.5 3.15789 0.5 4.58914 0.5H19.4114C20.8426 0.5 21.5579 0.5 22.1045 0.786108C22.5854 1.03778 22.9767 1.43906 23.2217 1.93298C23.5 2.49395 23.5 3.22868 23.5 4.69594V17.3041C23.5 17.9406 23.5 18.4391 23.4773 18.8453M0.500064 17.5626C0.501048 18.8598 0.517085 19.5389 0.778539 20.066C1.02355 20.5599 1.41422 20.9625 1.89507 21.2142C2.4412 21.5 3.15649 21.5 4.58494 21.5H19.4157C20.8441 21.5 21.5584 21.5 22.1045 21.2142C22.5854 20.9625 22.9767 20.5599 23.2217 20.066C23.3793 19.7484 23.4476 19.3754 23.4773 18.8453M0.500064 17.5626L6.59242 10.2617L6.59422 10.2597C7.13457 9.61216 7.40519 9.28785 7.72618 9.17096C8.00815 9.06828 8.31599 9.07067 8.59654 9.17737C8.91626 9.29895 9.18257 9.62696 9.71522 10.2835L13.1284 14.4906C13.6214 15.0984 13.8694 15.404 14.1705 15.5267C14.436 15.6349 14.7289 15.6471 15.0029 15.564C15.3148 15.4694 15.5894 15.1875 16.1384 14.6235L16.7736 13.9711C17.3326 13.3969 17.6121 13.11 17.9285 13.0162C18.2063 12.9338 18.5034 12.9515 18.7707 13.0649C19.0751 13.194 19.3219 13.51 19.8158 14.1441L23.4773 18.8453M23.4773 18.8453L23.5 18.8745M15.8333 8.375C15.1276 8.375 14.5556 7.78737 14.5556 7.0625C14.5556 6.33763 15.1276 5.75 15.8333 5.75C16.539 5.75 17.1111 6.33763 17.1111 7.0625C17.1111 7.78737 16.539 8.375 15.8333 8.375Z" stroke="black" stroke-linecap="round" stroke-linejoin="round"/>
</svg>
