<svg width="15" height="15" viewBox="0 0 15 15" fill="none" xmlns="http://www.w3.org/2000/svg">
<mask id="mask0_1741_51" style="mask-type:alpha" maskUnits="userSpaceOnUse" x="0" y="0" width="15" height="15">
<rect width="15" height="15" fill="#D9D9D9"/>
</mask>
<g mask="url(#mask0_1741_51)">
<path d="M7.5 13.75C6.63542 13.75 5.82292 13.5859 5.0625 13.2578C4.30208 12.9297 3.64062 12.4844 3.07812 11.9219C2.51562 11.3594 2.07031 10.6979 1.74219 9.9375C1.41406 9.17708 1.25 8.36458 1.25 7.5C1.25 6.63542 1.41406 5.82292 1.74219 5.0625C2.07031 4.30208 2.51562 3.64062 3.07812 3.07812C3.64062 2.51562 4.30208 2.07031 5.0625 1.74219C5.82292 1.41406 6.63542 1.25 7.5 1.25C8.36458 1.25 9.17708 1.41406 9.9375 1.74219C10.6979 2.07031 11.3594 2.51562 11.9219 3.07812C12.4844 3.64062 12.9297 4.30208 13.2578 5.0625C13.5859 5.82292 13.75 6.63542 13.75 7.5C13.75 8.36458 13.5859 9.17708 13.2578 9.9375C12.9297 10.6979 12.4844 11.3594 11.9219 11.9219C11.3594 12.4844 10.6979 12.9297 9.9375 13.2578C9.17708 13.5859 8.36458 13.75 7.5 13.75ZM6.875 12.4688V11.25C6.53125 11.25 6.23698 11.1276 5.99219 10.8828C5.7474 10.638 5.625 10.3438 5.625 10V9.375L2.625 6.375C2.59375 6.5625 2.5651 6.75 2.53906 6.9375C2.51302 7.125 2.5 7.3125 2.5 7.5C2.5 8.76042 2.91406 9.86458 3.74219 10.8125C4.57031 11.7604 5.61458 12.3125 6.875 12.4688ZM11.1875 10.875C11.6146 10.4063 11.9401 9.88281 12.1641 9.30469C12.388 8.72656 12.5 8.125 12.5 7.5C12.5 6.47917 12.2161 5.54688 11.6484 4.70313C11.0807 3.85938 10.3229 3.25 9.375 2.875V3.125C9.375 3.46875 9.2526 3.76302 9.00781 4.00781C8.76302 4.2526 8.46875 4.375 8.125 4.375H6.875V5.625C6.875 5.80208 6.8151 5.95052 6.69531 6.07031C6.57552 6.1901 6.42708 6.25 6.25 6.25H5V7.5H8.75C8.92708 7.5 9.07552 7.5599 9.19531 7.67969C9.3151 7.79948 9.375 7.94792 9.375 8.125V10H10C10.2708 10 10.5156 10.0807 10.7344 10.2422C10.9531 10.4036 11.1042 10.6146 11.1875 10.875Z" fill="#1AEDB1"/>
</g>
</svg>
