<svg width="20" height="20" viewBox="0 0 20 20" fill="none" xmlns="http://www.w3.org/2000/svg">
<path d="M5.26031 18.2352C6.65521 19.0397 8.27367 19.5 9.99962 19.5C15.2463 19.5 19.5 15.2467 19.5 10C19.5 4.75331 15.2467 0.5 10 0.5C4.75329 0.5 0.5 4.75331 0.5 10C0.5 11.726 0.960268 13.3444 1.76476 14.7394L1.76787 14.7448C1.84528 14.879 1.88432 14.9466 1.902 15.0106C1.91867 15.0709 1.92333 15.1252 1.91906 15.1876C1.91447 15.2547 1.89186 15.3243 1.8455 15.4634L1.03396 17.898L1.03294 17.9012C0.861716 18.4149 0.776102 18.6717 0.837127 18.8428C0.890337 18.992 1.00845 19.1098 1.15766 19.163C1.32842 19.2239 1.5841 19.1387 2.09552 18.9682L2.10189 18.9659L4.53649 18.1543C4.67512 18.1081 4.74559 18.0847 4.81257 18.0801C4.87501 18.0758 4.92887 18.0815 4.9892 18.0981C5.05333 18.1159 5.12105 18.1549 5.25595 18.2327L5.26031 18.2352Z" stroke="black" stroke-linecap="round" stroke-linejoin="round"/>
</svg>
