<svg width="14" height="13" viewBox="0 0 14 13" fill="none" xmlns="http://www.w3.org/2000/svg">
<path d="M6.80934 3.22359L0.649902 8.96513V11.8359L3.72962 11.8359L9.88905 6.09435M6.80934 3.22359L9.01798 1.16478L9.01931 1.16355C9.32334 0.88015 9.47563 0.738197 9.65117 0.685029C9.80581 0.638194 9.97239 0.638194 10.127 0.685029C10.3024 0.738159 10.4546 0.879951 10.7582 1.16295L12.0977 2.41159C12.4026 2.69581 12.5551 2.83799 12.6122 3.00186C12.6625 3.146 12.6625 3.30127 12.6122 3.44541C12.5551 3.60916 12.4028 3.75112 12.0984 4.03494L12.0977 4.03555L9.88905 6.09435M6.80934 3.22359L9.88905 6.09435" stroke="white" stroke-width="1.3" stroke-linecap="round" stroke-linejoin="round"/>
</svg>
