<svg width="16" height="18" viewBox="0 0 16 18" fill="none" xmlns="http://www.w3.org/2000/svg">
<path d="M3.52771 4.91667C3.52771 7.21785 5.34655 9.08333 7.59021 9.08333C9.83387 9.08333 11.6527 7.21785 11.6527 4.91667C11.6527 2.61548 9.83387 0.75 7.59021 0.75C5.34655 0.75 3.52771 2.61548 3.52771 4.91667Z" fill="#1AEDB1"/>
<path d="M14.0902 15.75C14.0902 13.4488 11.1801 11.5833 7.59021 11.5833C4.00036 11.5833 1.09021 13.4488 1.09021 15.75M7.59021 9.08333C5.34655 9.08333 3.52771 7.21785 3.52771 4.91667C3.52771 2.61548 5.34655 0.75 7.59021 0.75C9.83387 0.75 11.6527 2.61548 11.6527 4.91667C11.6527 7.21785 9.83387 9.08333 7.59021 9.08333Z" stroke="#1AEDB1" stroke-width="1.5" stroke-linecap="round" stroke-linejoin="round"/>
<path d="M0.59021 16.7501H14.0902H14.5902C14.0902 9.75 5.09019 11.7501 3.09019 12.7501C1.49019 13.5501 1.09021 13.7501 0.59021 16.7501Z" fill="#1AEDB1" stroke="#1AEDB1"/>
</svg>
