<svg width="18" height="18" viewBox="0 0 18 18" fill="none" xmlns="http://www.w3.org/2000/svg">
<path d="M18 14.6955V8.58492C18 7.9964 17.9995 7.70197 17.9264 7.42812C17.8616 7.18543 17.7553 6.95577 17.6114 6.74823C17.449 6.51404 17.2232 6.31984 16.7709 5.93229L11.3708 1.30639C10.5309 0.586858 10.1109 0.227274 9.63831 0.0904327C9.22184 -0.0301442 8.77794 -0.0301442 8.36147 0.0904327C7.88919 0.227171 7.46983 0.586414 6.63116 1.30486L1.22937 5.9323C0.776971 6.31984 0.551296 6.51404 0.388916 6.74823C0.245016 6.95577 0.137867 7.18543 0.0730928 7.42812C0 7.70197 0 7.99639 0 8.58492V14.6955C0 15.7218 0 16.2348 0.171271 16.6396C0.399632 17.1794 0.837359 17.6087 1.38867 17.8323C1.80216 18 2.32634 18 3.37471 18C4.42308 18 4.94784 18 5.36133 17.8323C5.91264 17.6087 6.35025 17.1795 6.57861 16.6397C6.74988 16.2349 6.75 15.7217 6.75 14.6954V13.5939C6.75 12.3774 7.75736 11.3911 9 11.3911C10.2426 11.3911 11.25 12.3774 11.25 13.5939V14.6954C11.25 15.7217 11.25 16.2349 11.4213 16.6397C11.6496 17.1795 12.0874 17.6087 12.6387 17.8323C13.0522 18 13.5763 18 14.6247 18C15.6731 18 16.1978 18 16.6113 17.8323C17.1626 17.6087 17.6003 17.1794 17.8286 16.6396C17.9999 16.2348 18 15.7218 18 14.6955Z" fill="#1AEDB1"/>
</svg>
