<svg width="18" height="20" viewBox="0 0 18 20" fill="none" xmlns="http://www.w3.org/2000/svg">
<path d="M11.8503 14.85V15.85C11.8503 17.5068 10.5072 18.85 8.85034 18.85C7.19349 18.85 5.85034 17.5068 5.85034 15.85V14.85M11.8503 14.85H5.85034M11.8503 14.85H15.4408C15.8234 14.85 16.0155 14.85 16.1704 14.7977C16.4663 14.6979 16.6978 14.4656 16.7976 14.1698C16.8501 14.0143 16.8501 13.8215 16.8501 13.4359C16.8501 13.2672 16.8499 13.1828 16.8367 13.1024C16.8117 12.9504 16.7527 12.8063 16.6629 12.6812C16.6154 12.6151 16.5551 12.5547 16.4362 12.4358L16.0466 12.0463C15.921 11.9206 15.8503 11.7501 15.8503 11.5724V7.84998C15.8503 3.98398 12.7163 0.849966 8.85034 0.849976C4.98436 0.849985 1.85034 3.98399 1.85034 7.84998V11.5724C1.85034 11.7501 1.77959 11.9206 1.65391 12.0463L1.2644 12.4358C1.1451 12.5551 1.08538 12.615 1.03784 12.6812C0.947997 12.8063 0.888488 12.9504 0.863542 13.1024C0.850342 13.1829 0.850342 13.2672 0.850342 13.4359C0.850342 13.8215 0.850342 14.0142 0.902794 14.1697C1.00259 14.4656 1.23514 14.6979 1.53101 14.7977C1.6859 14.85 1.87736 14.85 2.2599 14.85H5.85034" stroke="black" stroke-width="1.7" stroke-linecap="round" stroke-linejoin="round"/>
</svg>
