<svg width="14" height="17" viewBox="0 0 14 17" fill="none" xmlns="http://www.w3.org/2000/svg">
<path d="M0.75 14.5002V3.41683C0.75 2.48341 0.75 2.01635 0.936846 1.65983C1.1012 1.34623 1.36326 1.09144 1.68583 0.931656C2.05253 0.75 2.53293 0.75 3.49302 0.75H11.3787C11.8588 0.75 12.0991 0.75 12.2825 0.840828C12.4438 0.920722 12.5741 1.04811 12.6563 1.20492C12.7497 1.38318 12.75 1.6167 12.75 2.08341V11.9167C12.75 12.3835 12.7497 12.6165 12.6563 12.7947C12.5741 12.9516 12.4439 13.0794 12.2827 13.1593C12.0995 13.25 11.8594 13.25 11.3803 13.25H2.67857C1.61345 13.25 0.75 14.0895 0.75 15.125C0.75 15.4702 1.03782 15.75 1.39286 15.75H10.5232C11.0023 15.75 11.2423 15.75 11.4255 15.6593C11.5868 15.5794 11.7169 15.4516 11.7991 15.2948C11.8925 15.1166 11.8929 14.8834 11.8929 14.4167V13.25" stroke="#7D7C7C" stroke-width="1.5" stroke-linecap="round" stroke-linejoin="round"/>
</svg>
