<svg width="18" height="17" viewBox="0 0 18 17" fill="none" xmlns="http://www.w3.org/2000/svg">
<path d="M3.06076 14.8642L4.4154 13.7834L4.42536 13.7757C4.70777 13.5504 4.85028 13.4367 5.00927 13.3557C5.15192 13.283 5.30403 13.2301 5.46094 13.1979C5.6378 13.1617 5.82203 13.1617 6.19184 13.1617H13.9083C14.902 13.1617 15.3994 13.1617 15.7794 12.9687C16.1139 12.7987 16.386 12.5272 16.5564 12.1935C16.75 11.8146 16.75 11.319 16.75 10.3279V3.58423C16.75 2.59314 16.75 2.09685 16.5564 1.71794C16.386 1.3843 16.1133 1.11325 15.7788 0.943257C15.3985 0.75 14.9014 0.75 13.9057 0.75H3.59462C2.59897 0.75 2.10077 0.75 1.72049 0.943257C1.38598 1.11325 1.11421 1.3843 0.943766 1.71794C0.75 2.09722 0.75 2.59411 0.75 3.58714V13.7568C0.75 14.7016 0.75 15.1739 0.944184 15.4165C1.11306 15.6275 1.36905 15.7503 1.63976 15.75C1.95102 15.7497 2.32106 15.4544 3.06076 14.8642Z" stroke="#7D7C7C" stroke-width="1.5" stroke-linecap="round" stroke-linejoin="round"/>
</svg>
