<svg width="20" height="20" viewBox="0 0 20 20" fill="none" xmlns="http://www.w3.org/2000/svg">
<path d="M18.7501 15.4455V9.33492C18.7501 8.7464 18.7496 8.45197 18.6765 8.17812C18.6117 7.93543 18.5054 7.70577 18.3615 7.49823C18.1991 7.26404 17.9734 7.06984 17.521 6.68229L12.121 2.05639C11.281 1.33686 10.8611 0.977274 10.3884 0.840433C9.97196 0.719856 9.52806 0.719856 9.1116 0.840433C8.63931 0.977171 8.21995 1.33641 7.38128 2.05486L1.97949 6.6823C1.52709 7.06984 1.30142 7.26404 1.13904 7.49823C0.995138 7.70577 0.887989 7.93543 0.823215 8.17812C0.750122 8.45197 0.750122 8.74639 0.750122 9.33492V15.4455C0.750122 16.4718 0.750122 16.9848 0.921393 17.3896C1.14975 17.9294 1.58748 18.3587 2.13879 18.5823C2.55228 18.75 3.07646 18.75 4.12483 18.75C5.1732 18.75 5.69797 18.75 6.11145 18.5823C6.66276 18.3587 7.10037 17.9295 7.32874 17.3897C7.50001 16.9849 7.50012 16.4717 7.50012 15.4454V14.3439C7.50012 13.1274 8.50748 12.1411 9.75012 12.1411C10.9928 12.1411 12.0001 13.1274 12.0001 14.3439V15.4454C12.0001 16.4717 12.0001 16.9849 12.1714 17.3897C12.3998 17.9295 12.8375 18.3587 13.3888 18.5823C13.8023 18.75 14.3265 18.75 15.3748 18.75C16.4232 18.75 16.948 18.75 17.3615 18.5823C17.9128 18.3587 18.3504 17.9294 18.5787 17.3896C18.75 16.9848 18.7501 16.4718 18.7501 15.4455Z" stroke="#747474" stroke-width="1.5" stroke-linecap="round" stroke-linejoin="round"/>
</svg>
