<svg width="13" height="16" viewBox="0 0 13 16" fill="none" xmlns="http://www.w3.org/2000/svg">
<path d="M13 4.66667C13 3.74667 12.2128 3 11.2428 3C11.1233 3 11.0038 3.01333 10.8914 3.03333V2.66667C10.8914 1.74667 10.1042 1 9.13421 1C8.97255 1 8.81089 1.02 8.66329 1.06C8.40323 0.44 7.77064 0 7.0256 0C6.16107 0 5.44414 0.593333 5.29654 1.37333C5.17705 1.34667 5.05053 1.33333 4.91699 1.33333C3.94703 1.33333 3.15981 2.08 3.15981 3V6.92667C2.92083 6.72 2.62563 6.56667 2.30231 6.48667L1.7611 6.34667C1.17772 6.19333 0.566218 6.40667 0.221811 6.9C-0.04528 7.28 -0.0593373 7.77333 0.11638 8.2L1.91573 12.4867C2.80135 14.6067 4.96619 16 7.37703 16C10.4837 16 13 13.6133 13 10.6667V4.66667ZM11.5943 10.6667C11.5943 12.8733 9.70354 14.6667 7.37703 14.6667C5.54254 14.6667 3.89783 13.6067 3.22307 11.9933L1.3956 7.63333L1.76813 7.72667C2.09145 7.80667 2.35151 8.03333 2.471 8.32667L3.15981 10H4.56555V3C4.56555 2.81333 4.72018 2.66667 4.91699 2.66667C5.11379 2.66667 5.26842 2.81333 5.26842 3V8H6.67416V1.66667C6.67416 1.48 6.8288 1.33333 7.0256 1.33333C7.2224 1.33333 7.37703 1.48 7.37703 1.66667V8H8.78278V2.66667C8.78278 2.48 8.93741 2.33333 9.13421 2.33333C9.33102 2.33333 9.48565 2.48 9.48565 2.66667V8H10.8914V4.66667C10.8914 4.48 11.046 4.33333 11.2428 4.33333C11.4396 4.33333 11.5943 4.48 11.5943 4.66667V10.6667Z" fill="white"/>
</svg>
