<svg width="16" height="21" viewBox="0 0 16 21" fill="none" xmlns="http://www.w3.org/2000/svg">
<path d="M16 6.125C16 4.9175 15.0311 3.9375 13.8373 3.9375C13.6903 3.9375 13.5432 3.955 13.4048 3.98125V3.5C13.4048 2.2925 12.4359 1.3125 11.2421 1.3125C11.0431 1.3125 10.8442 1.33875 10.6625 1.39125C10.3424 0.5775 9.56387 0 8.64689 0C7.58285 0 6.70048 0.77875 6.51882 1.8025C6.37175 1.7675 6.21604 1.75 6.05168 1.75C4.85788 1.75 3.889 2.73 3.889 3.9375V9.09125C3.59487 8.82 3.23154 8.61875 2.83361 8.51375L2.16751 8.33C1.4495 8.12875 0.696883 8.40875 0.272998 9.05625C-0.0557292 9.555 -0.0730305 10.2025 0.143237 10.7625L2.35782 16.3888C3.44781 19.1712 6.11223 21 9.07943 21C12.903 21 16 17.8675 16 14V6.125ZM14.2699 14C14.2699 16.8962 11.9428 19.25 9.07943 19.25C6.82159 19.25 4.79732 17.8587 3.96685 15.7413L1.71767 10.0188L2.17616 10.1413C2.57409 10.2463 2.89417 10.5437 3.04123 10.9288L3.889 13.125H5.61914V3.9375C5.61914 3.6925 5.80946 3.5 6.05168 3.5C6.2939 3.5 6.48421 3.6925 6.48421 3.9375V10.5H8.21436V2.1875C8.21436 1.9425 8.40467 1.75 8.64689 1.75C8.88911 1.75 9.07943 1.9425 9.07943 2.1875V10.5H10.8096V3.5C10.8096 3.255 10.9999 3.0625 11.2421 3.0625C11.4843 3.0625 11.6746 3.255 11.6746 3.5V10.5H13.4048V6.125C13.4048 5.88 13.5951 5.6875 13.8373 5.6875C14.0795 5.6875 14.2699 5.88 14.2699 6.125V14Z" fill="#A8A8A8"/>
</svg>
