<svg width="13" height="13" viewBox="0 0 13 13" fill="none" xmlns="http://www.w3.org/2000/svg">
<path d="M4.0625 13C2.93102 13 1.97106 12.6058 1.18264 11.8174C0.394213 11.0289 0 10.069 0 8.9375C0 8.39583 0.102315 7.87824 0.306944 7.38472C0.511574 6.8912 0.806481 6.45185 1.19167 6.06667L6.06667 1.19167C6.45185 0.806481 6.8912 0.511574 7.38472 0.306944C7.87824 0.102315 8.39583 0 8.9375 0C10.069 0 11.0289 0.394213 11.8174 1.18264C12.6058 1.97106 13 2.93102 13 4.0625C13 4.60417 12.8977 5.12176 12.6931 5.61528C12.4884 6.1088 12.1935 6.54815 11.8083 6.93333L6.93333 11.8083C6.54815 12.1935 6.1088 12.4884 5.61528 12.6931C5.12176 12.8977 4.60417 13 4.0625 13ZM8.86528 7.83611L10.7972 5.92222C11.038 5.68148 11.2245 5.39861 11.3569 5.07361C11.4894 4.74861 11.5556 4.41157 11.5556 4.0625C11.5556 3.34028 11.2998 2.72338 10.7882 2.21181C10.2766 1.70023 9.65972 1.44444 8.9375 1.44444C8.58842 1.44444 8.25139 1.51065 7.92639 1.64306C7.60139 1.77546 7.31852 1.96204 7.07778 2.20278L5.16389 4.13472L8.86528 7.83611ZM4.0625 11.5556C4.41157 11.5556 4.74861 11.4894 5.07361 11.3569C5.39861 11.2245 5.68148 11.038 5.92222 10.7972L7.83611 8.86528L4.13472 5.16389L2.20278 7.07778C1.96204 7.31852 1.77546 7.60139 1.64306 7.92639C1.51065 8.25139 1.44444 8.58842 1.44444 8.9375C1.44444 9.65972 1.70023 10.2766 2.21181 10.7882C2.72338 11.2998 3.34028 11.5556 4.0625 11.5556Z" fill="#6F00FF"/>
</svg>
