<svg width="21" height="18" viewBox="0 0 21 18" fill="none" xmlns="http://www.w3.org/2000/svg">
<path d="M19.0468 8.05V16C19.0468 16.55 18.8512 17.021 18.4598 17.413C18.0678 17.8043 17.5968 18 17.0468 18H3.04682C2.49682 18 2.02615 17.8043 1.63482 17.413C1.24282 17.021 1.04682 16.55 1.04682 16V8.05C0.663486 7.7 0.367819 7.25 0.159819 6.7C-0.0488477 6.15 -0.0531811 5.55 0.146819 4.9L1.19682 1.5C1.33015 1.06667 1.56782 0.708333 1.90982 0.425C2.25115 0.141667 2.64682 0 3.09682 0H16.9968C17.4468 0 17.8385 0.137333 18.1718 0.412C18.5052 0.687333 18.7468 1.05 18.8968 1.5L19.9468 4.9C20.1468 5.55 20.1428 6.14167 19.9348 6.675C19.7262 7.20833 19.4302 7.66667 19.0468 8.05ZM12.2468 7C12.6968 7 13.0385 6.84567 13.2718 6.537C13.5052 6.229 13.5968 5.88333 13.5468 5.5L12.9968 2H11.0468V5.7C11.0468 6.05 11.1635 6.35433 11.3968 6.613C11.6302 6.871 11.9135 7 12.2468 7ZM7.74682 7C8.13015 7 8.44282 6.871 8.68482 6.613C8.92615 6.35433 9.04682 6.05 9.04682 5.7V2H7.09682L6.54682 5.5C6.48015 5.9 6.56782 6.25 6.80982 6.55C7.05115 6.85 7.36349 7 7.74682 7ZM3.29682 7C3.59682 7 3.85915 6.89167 4.08382 6.675C4.30915 6.45833 4.44682 6.18333 4.49682 5.85L5.04682 2H3.09682L2.09682 5.35C1.99682 5.68333 2.05082 6.04167 2.25882 6.425C2.46749 6.80833 2.81349 7 3.29682 7ZM16.7968 7C17.2802 7 17.6302 6.80833 17.8468 6.425C18.0635 6.04167 18.1135 5.68333 17.9968 5.35L16.9468 2H15.0468L15.5968 5.85C15.6468 6.18333 15.7845 6.45833 16.0098 6.675C16.2345 6.89167 16.4968 7 16.7968 7ZM3.04682 16H17.0468V8.95C16.9635 8.98333 16.9095 9 16.8848 9H16.7968C16.3468 9 15.9508 8.925 15.6088 8.775C15.2675 8.625 14.9302 8.38333 14.5968 8.05C14.2968 8.35 13.9552 8.58333 13.5718 8.75C13.1885 8.91667 12.7802 9 12.3468 9C11.8968 9 11.4758 8.91667 11.0838 8.75C10.6925 8.58333 10.3468 8.35 10.0468 8.05C9.76348 8.35 9.43449 8.58333 9.05982 8.75C8.68449 8.91667 8.28015 9 7.84682 9C7.36349 9 6.92582 8.91667 6.53382 8.75C6.14249 8.58333 5.79682 8.35 5.49682 8.05C5.14682 8.4 4.80115 8.64567 4.45982 8.787C4.11782 8.929 3.73015 9 3.29682 9H3.18482C3.14282 9 3.09682 8.98333 3.04682 8.95V16Z" fill="black"/>
</svg>
