<svg width="18" height="19" viewBox="0 0 18 19" fill="none" xmlns="http://www.w3.org/2000/svg">
<path d="M3.18867 9.20841L10.0418 9.13506M15.6533 10.4892L3.43042 17.1286C2.33504 17.7236 1.78704 18.0212 1.42289 17.9412C1.10704 17.8718 0.844344 17.6548 0.717581 17.3573C0.571416 17.0142 0.762042 16.4198 1.14368 15.2327L2.91682 9.7172C2.97738 9.52882 3.00737 9.43486 3.01877 9.33871C3.02889 9.25338 3.02851 9.16723 3.01657 9.08214C3.00342 8.98844 2.9718 8.89687 2.9101 8.71818L1.01494 3.22924C0.607977 2.05057 0.404643 1.46102 0.543432 1.11492C0.663797 0.814769 0.921735 0.591657 1.23603 0.515529C1.59844 0.427749 2.15284 0.713331 3.26106 1.28493L15.6232 7.66115C16.4945 8.11053 16.9301 8.33543 17.075 8.63984C17.2013 8.90499 17.2047 9.21215 17.0842 9.47994C16.9459 9.78723 16.5152 10.0212 15.6547 10.4886L15.6533 10.4892Z" stroke="#A8A8A8" stroke-linecap="round" stroke-linejoin="round"/>
</svg>
