<svg width="18" height="19" viewBox="0 0 18 19" fill="none" xmlns="http://www.w3.org/2000/svg">
<path d="M3.43029 17.1286L15.6531 10.4892L15.6545 10.4886C16.5151 10.0212 16.9458 9.78723 17.0841 9.47994C17.2046 9.21215 17.2011 8.90499 17.0749 8.63984C16.93 8.33543 16.4944 8.11053 15.6231 7.66115L3.26094 1.28493C2.15272 0.713331 1.59832 0.427749 1.23591 0.515529C0.921613 0.591657 0.663675 0.814769 0.54331 1.11492C0.404521 1.46102 0.607855 2.05057 1.01481 3.22924L2.90998 8.71818C2.97168 8.89687 3.0033 8.98844 3.01645 9.08214C3.02839 9.16723 3.02877 9.25338 3.01865 9.33871C3.00725 9.43486 2.97726 9.52882 2.9167 9.7172L1.14355 15.2327C0.76192 16.4198 0.571294 17.0142 0.717459 17.3573C0.844222 17.6548 1.10692 17.8718 1.42277 17.9412C1.78692 18.0212 2.33491 17.7236 3.43029 17.1286Z" fill="white"/>
<path d="M3.18854 9.20841L10.0416 9.13506M15.6531 10.4892L3.43029 17.1286C2.33491 17.7236 1.78692 18.0212 1.42277 17.9412C1.10692 17.8718 0.844222 17.6548 0.717459 17.3573C0.571294 17.0142 0.76192 16.4198 1.14355 15.2327L2.9167 9.7172C2.97726 9.52882 3.00725 9.43486 3.01865 9.33871C3.02877 9.25338 3.02839 9.16723 3.01645 9.08214C3.0033 8.98844 2.97168 8.89687 2.90998 8.71818L1.01481 3.22924C0.607855 2.05057 0.404521 1.46102 0.54331 1.11492C0.663675 0.814769 0.921613 0.591657 1.23591 0.515529C1.59832 0.427749 2.15272 0.713331 3.26094 1.28493L15.6231 7.66115C16.4944 8.11053 16.93 8.33543 17.0749 8.63984C17.2011 8.90499 17.2046 9.21215 17.0841 9.47994C16.9458 9.78723 16.5151 10.0212 15.6545 10.4886L15.6531 10.4892Z" stroke="#1AEDB1" stroke-linecap="round" stroke-linejoin="round"/>
</svg>
