<svg width="14" height="14" viewBox="0 0 14 14" fill="none" xmlns="http://www.w3.org/2000/svg">
<path d="M6.8514 1.47483C6.85084 1.22973 6.81673 0.985867 6.75 0.75C10.0622 0.753631 12.7463 3.44323 12.75 6.75009C12.7607 10.0585 10.0637 12.7392 6.75 12.75C3.43631 12.7607 0.76077 10.0588 0.75 6.75045C1.49112 6.90765 2.26359 6.74885 2.84993 6.26978C3.45413 5.78021 3.8026 5.04297 3.7968 4.2661C3.79639 4.09135 3.78073 3.9172 3.75 3.74516C4.42856 4.01421 5.19695 3.92611 5.7972 3.51112C6.46307 3.04695 6.85735 2.28562 6.8514 1.47483Z" stroke="#00D346" stroke-width="1.5" stroke-linecap="round" stroke-linejoin="round"/>
<path d="M0.751302 3.41804V3.41671H0.75V3.41801L0.751302 3.41804Z" stroke="#00D346" stroke-width="1.5" stroke-linecap="round" stroke-linejoin="round"/>
<path d="M4.08464 0.751333V0.75H4.08333V0.751302L4.08464 0.751333Z" stroke="#00D346" stroke-width="1.5" stroke-linecap="round" stroke-linejoin="round"/>
<path d="M1.41797 0.751333V0.75H1.41667V0.751302L1.41797 0.751333Z" stroke="#00D346" stroke-width="1.5" stroke-linecap="round" stroke-linejoin="round"/>
<path d="M5.41797 10.0848V10.0835H5.41667V10.0848L5.41797 10.0848Z" stroke="#00D346" stroke-width="1.5" stroke-linecap="round" stroke-linejoin="round"/>
<path d="M8.7513 8.75145V8.75012H8.75V8.75142L8.7513 8.75145Z" stroke="#00D346" stroke-width="1.5" stroke-linecap="round" stroke-linejoin="round"/>
<path d="M6.08464 6.75142V6.75009H6.08333V6.75139L6.08464 6.75142Z" stroke="#00D346" stroke-width="1.5" stroke-linecap="round" stroke-linejoin="round"/>
<path d="M9.41797 5.41807V5.41674H9.41667V5.41804L9.41797 5.41807Z" stroke="#00D346" stroke-width="1.5" stroke-linecap="round" stroke-linejoin="round"/>
<path d="M0.751302 3.41804V3.41671H0.75V3.41801L0.751302 3.41804Z" stroke="#00D346" stroke-width="1.5" stroke-linecap="round" stroke-linejoin="round"/>
<path d="M4.08464 0.751333V0.75H4.08333V0.751302L4.08464 0.751333Z" stroke="#00D346" stroke-width="1.5" stroke-linecap="round" stroke-linejoin="round"/>
<path d="M1.41797 0.751333V0.75H1.41667V0.751302L1.41797 0.751333Z" stroke="#00D346" stroke-width="1.5" stroke-linecap="round" stroke-linejoin="round"/>
</svg>
